<svg xmlns="http://www.w3.org/2000/svg" viewBox="0 0 123.75 171.45"><title>icon</title><g id="Layer_2" data-name="Layer 2"><g id="Layer_1-2" data-name="Layer 1"><path d="M61.9,171.45c-2-2.33-4.06-4.45-6.08-6.65C53.15,161.92,50.48,159,48,156c-2-2.47-3.83-5-5.75-7.52-5-6.6-10.08-13.18-14.94-19.9S17.87,115,13.72,107.9a117.93,117.93,0,0,1-9.44-20A76.14,76.14,0,0,1,.91,75,59.65,59.65,0,0,1,.08,64.14c0-1,0-2-.07-3.07A59.38,59.38,0,0,1,4.15,38.2a59.27,59.27,0,0,1,20-26A61.34,61.34,0,0,1,46.32,1.81,62.23,62.23,0,0,1,58.64.06a62.57,62.57,0,0,1,41,13.09,62.16,62.16,0,0,1,8.47,8.06c1.66,1.89,3.37,3.74,4.89,5.75a51.68,51.68,0,0,1,9.42,19.82,54.52,54.52,0,0,1,1.27,9,59.56,59.56,0,0,1-.19,9.2,78.6,78.6,0,0,1-2.85,14.53A126.35,126.35,0,0,1,111.39,102a238,238,0,0,1-15.19,25.09c-5.52,8.09-11.41,15.9-17.29,23.72-4,5.33-8.36,10.35-12.65,15.44q-2,2.33-3.93,4.64Zm.81-138.72A32.29,32.29,0,0,0,51.13,34.6,31.06,31.06,0,0,0,34.25,76.83,30,30,0,0,0,65,94.06a29.39,29.39,0,0,0,12.34-4.45A30.93,30.93,0,0,0,91.4,61.18,29.61,29.61,0,0,0,87.9,49C82.15,38.56,73.24,33.23,62.71,32.74Z"/></g></g></svg>